<?xml version="1.0" encoding="utf-8"?>
<!-- Generator: Adobe Illustrator 19.0.0, SVG Export Plug-In . SVG Version: 6.00 Build 0)  -->
<svg version="1.1" xmlns="http://www.w3.org/2000/svg" xmlns:xlink="http://www.w3.org/1999/xlink" x="0px" y="0px"
	 viewBox="0 0 800 800" style="enable-background:new 0 0 800 800;" xml:space="preserve">
<style type="text/css">
	.st0{fill:url(#SVGID_1_);}
	.st1{opacity:0.45;}
	.st2{opacity:0;fill:#929497;}
	.st3{opacity:1.515152e-002;fill:#919396;}
	.st4{opacity:3.030303e-002;fill:#909194;}
	.st5{opacity:4.545455e-002;fill:#8E9093;}
	.st6{opacity:6.060606e-002;fill:#8D8F92;}
	.st7{opacity:7.575758e-002;fill:#8C8E90;}
	.st8{opacity:9.090909e-002;fill:#8B8C8F;}
	.st9{opacity:0.1061;fill:#898B8E;}
	.st10{opacity:0.1212;fill:#888A8D;}
	.st11{opacity:0.1364;fill:#87898B;}
	.st12{opacity:0.1515;fill:#86878A;}
	.st13{opacity:0.1667;fill:#848689;}
	.st14{opacity:0.1818;fill:#838587;}
	.st15{opacity:0.197;fill:#828386;}
	.st16{opacity:0.2121;fill:#818285;}
	.st17{opacity:0.2273;fill:#7F8183;}
	.st18{opacity:0.2424;fill:#7E8082;}
	.st19{opacity:0.2576;fill:#7D7E81;}
	.st20{opacity:0.2727;fill:#7C7D80;}
	.st21{opacity:0.2879;fill:#7A7C7E;}
	.st22{opacity:0.303;fill:#797B7D;}
	.st23{opacity:0.3182;fill:#78797C;}
	.st24{opacity:0.3333;fill:#77787A;}
	.st25{opacity:0.3485;fill:#757779;}
	.st26{opacity:0.3636;fill:#747578;}
	.st27{opacity:0.3788;fill:#737476;}
	.st28{opacity:0.3939;fill:#727375;}
	.st29{opacity:0.4091;fill:#707274;}
	.st30{opacity:0.4242;fill:#6F7073;}
	.st31{opacity:0.4394;fill:#6E6F71;}
	.st32{opacity:0.4545;fill:#6D6E70;}
	.st33{opacity:0.4697;fill:#6B6D6F;}
	.st34{opacity:0.4848;fill:#6A6B6D;}
	.st35{opacity:0.5;fill:#696A6C;}
	.st36{opacity:0.5152;fill:#68696B;}
	.st37{opacity:0.5303;fill:#676769;}
	.st38{opacity:0.5455;fill:#656668;}
	.st39{opacity:0.5606;fill:#646567;}
	.st40{opacity:0.5758;fill:#636465;}
	.st41{opacity:0.5909;fill:#626264;}
	.st42{opacity:0.6061;fill:#606163;}
	.st43{opacity:0.6212;fill:#5F6062;}
	.st44{opacity:0.6364;fill:#5E5F60;}
	.st45{opacity:0.6515;fill:#5D5D5F;}
	.st46{opacity:0.6667;fill:#5B5C5E;}
	.st47{opacity:0.6818;fill:#5A5B5C;}
	.st48{opacity:0.697;fill:#59595B;}
	.st49{opacity:0.7121;fill:#58585A;}
	.st50{opacity:0.7273;fill:#565758;}
	.st51{opacity:0.7424;fill:#555657;}
	.st52{opacity:0.7576;fill:#545456;}
	.st53{opacity:0.7727;fill:#535355;}
	.st54{opacity:0.7879;fill:#515253;}
	.st55{opacity:0.803;fill:#505152;}
	.st56{opacity:0.8182;fill:#4F4F51;}
	.st57{opacity:0.8333;fill:#4E4E4F;}
	.st58{opacity:0.8485;fill:#4C4D4E;}
	.st59{opacity:0.8636;fill:#4B4B4D;}
	.st60{opacity:0.8788;fill:#4A4A4B;}
	.st61{opacity:0.8939;fill:#49494A;}
	.st62{opacity:0.9091;fill:#474849;}
	.st63{opacity:0.9242;fill:#464648;}
	.st64{opacity:0.9394;fill:#454546;}
	.st65{opacity:0.9545;fill:#444445;}
	.st66{opacity:0.9697;fill:#424344;}
	.st67{opacity:0.9848;fill:#414142;}
	.st68{fill:#404041;}
	.st69{fill:url(#SVGID_2_);}
	.st70{fill:url(#SVGID_3_);}
	.st71{fill:url(#SVGID_4_);}
	.st72{fill:url(#SVGID_5_);}
	.st73{fill:url(#SVGID_6_);}
	.st74{fill:url(#SVGID_7_);}
	.st75{fill:url(#SVGID_8_);}
	.st76{fill:url(#SVGID_9_);}
	.st77{fill:url(#SVGID_10_);}
	.st78{fill:url(#SVGID_11_);}
	.st79{fill:#231F20;}
	.st80{fill:none;}
	.st81{fill:#009345;}
	.st82{font-family:'LucidaBright';}
	.st83{font-size:48px;}
	.st84{fill:#29B473;}
	.st85{fill:#006838;}
</style>
<g id="Layer_2">
	
		<radialGradient id="SVGID_1_" cx="400.0614" cy="400.1536" r="317.005" gradientTransform="matrix(1.3793 0 0 2.0725 -151.8047 -429.3183)" gradientUnits="userSpaceOnUse">
		<stop  offset="0" style="stop-color:#FFFFFF"/>
		<stop  offset="0.5942" style="stop-color:#FDFDFD"/>
		<stop  offset="0.808" style="stop-color:#F6F7F7"/>
		<stop  offset="0.9601" style="stop-color:#EBEBEC"/>
		<stop  offset="1" style="stop-color:#E6E7E8"/>
	</radialGradient>
	<rect class="st0" width="800" height="800"/>
</g>
<g id="Layer_4">
	<g>
		<g>
			<g class="st1">
				<path class="st2" d="M486,376.8c0,5.2-38.6,9.5-86.3,9.5c-47.6,0-86.3-4.2-86.3-9.5c0-5.2,38.6-9.5,86.3-9.5
					C447.4,367.3,486,371.5,486,376.8z"/>
				<path class="st3" d="M484.9,376.8c0,5.2-38.2,9.3-85.2,9.3c-47.1,0-85.2-4.2-85.2-9.3c0-5.2,38.2-9.3,85.2-9.3
					C446.8,367.4,484.9,371.6,484.9,376.8z"/>
				<path class="st4" d="M483.9,376.8c0,5.1-37.7,9.2-84.2,9.2c-46.5,0-84.2-4.1-84.2-9.2c0-5.1,37.7-9.2,84.2-9.2
					C446.2,367.5,483.9,371.7,483.9,376.8z"/>
				<path class="st5" d="M482.8,376.8c0,5-37.2,9.1-83.1,9.1c-45.9,0-83.1-4.1-83.1-9.1c0-5,37.2-9.1,83.1-9.1
					C445.6,367.7,482.8,371.7,482.8,376.8z"/>
				<path class="st6" d="M481.8,376.8c0,4.9-36.7,8.9-82.1,8.9c-45.3,0-82.1-4-82.1-8.9c0-4.9,36.7-9,82.1-9
					C445,367.8,481.8,371.8,481.8,376.8z"/>
				<path class="st7" d="M480.7,376.8c0,4.9-36.3,8.8-81,8.8c-44.7,0-81-3.9-81-8.8c0-4.9,36.3-8.8,81-8.8
					C444.5,367.9,480.7,371.9,480.7,376.8z"/>
				<path class="st8" d="M479.7,376.8c0,4.8-35.8,8.7-80,8.7c-44.2,0-80-3.9-80-8.7c0-4.8,35.8-8.7,80-8.7
					C443.9,368.1,479.7,372,479.7,376.8z"/>
				<path class="st9" d="M478.6,376.8c0,4.7-35.3,8.6-78.9,8.6c-43.6,0-78.9-3.8-78.9-8.6c0-4.7,35.3-8.6,78.9-8.6
					C443.3,368.2,478.6,372,478.6,376.8z"/>
				<path class="st10" d="M477.6,376.8c0,4.7-34.9,8.4-77.9,8.4c-43,0-77.9-3.8-77.9-8.4c0-4.7,34.9-8.4,77.9-8.4
					C442.7,368.3,477.6,372.1,477.6,376.8z"/>
				<path class="st11" d="M476.5,376.8c0,4.6-34.4,8.3-76.8,8.3c-42.4,0-76.8-3.7-76.8-8.3c0-4.6,34.4-8.3,76.8-8.3
					C442.1,368.4,476.5,372.2,476.5,376.8z"/>
				<path class="st12" d="M475.5,376.8c0,4.5-33.9,8.2-75.8,8.2c-41.8,0-75.8-3.7-75.8-8.2c0-4.5,33.9-8.2,75.8-8.2
					C441.6,368.6,475.5,372.2,475.5,376.8z"/>
				<path class="st13" d="M474.4,376.8c0,4.4-33.5,8-74.7,8c-41.3,0-74.7-3.6-74.7-8c0-4.4,33.4-8,74.7-8
					C441,368.7,474.4,372.3,474.4,376.8z"/>
				<path class="st14" d="M473.4,376.8c0,4.4-33,7.9-73.7,7.9c-40.7,0-73.7-3.5-73.7-7.9c0-4.4,33-7.9,73.7-7.9
					C440.4,368.8,473.4,372.4,473.4,376.8z"/>
				<path class="st15" d="M472.3,376.8c0,4.3-32.5,7.8-72.6,7.8c-40.1,0-72.6-3.5-72.6-7.8c0-4.3,32.5-7.8,72.6-7.8
					C439.8,369,472.3,372.5,472.3,376.8z"/>
				<path class="st16" d="M471.3,376.8c0,4.2-32,7.7-71.6,7.7c-39.5,0-71.6-3.4-71.6-7.7c0-4.2,32-7.7,71.6-7.7
					C439.2,369.1,471.3,372.5,471.3,376.8z"/>
				<path class="st17" d="M470.2,376.8c0,4.2-31.6,7.5-70.5,7.5c-38.9,0-70.5-3.4-70.5-7.5c0-4.2,31.6-7.5,70.5-7.5
					C438.7,369.2,470.2,372.6,470.2,376.8z"/>
				<path class="st18" d="M469.2,376.8c0,4.1-31.1,7.4-69.4,7.4c-38.4,0-69.4-3.3-69.4-7.4c0-4.1,31.1-7.4,69.4-7.4
					C438.1,369.4,469.2,372.7,469.2,376.8z"/>
				<path class="st19" d="M468.1,376.8c0,4-30.6,7.3-68.4,7.3c-37.8,0-68.4-3.3-68.4-7.3c0-4,30.6-7.3,68.4-7.3
					C437.5,369.5,468.1,372.7,468.1,376.8z"/>
				<path class="st20" d="M467.1,376.8c0,3.9-30.2,7.1-67.3,7.1c-37.2,0-67.3-3.2-67.3-7.1c0-3.9,30.2-7.1,67.3-7.1
					C436.9,369.6,467.1,372.8,467.1,376.8z"/>
				<path class="st21" d="M466,376.8c0,3.9-29.7,7-66.3,7c-36.6,0-66.3-3.1-66.3-7c0-3.9,29.7-7,66.3-7
					C436.3,369.7,466,372.9,466,376.8z"/>
				<ellipse class="st22" cx="399.7" cy="376.8" rx="65.2" ry="6.9"/>
				<ellipse class="st23" cx="399.7" cy="376.8" rx="64.2" ry="6.8"/>
				<ellipse class="st24" cx="399.7" cy="376.8" rx="63.1" ry="6.6"/>
				<ellipse class="st25" cx="399.7" cy="376.8" rx="62.1" ry="6.5"/>
				<ellipse class="st26" cx="399.7" cy="376.8" rx="61" ry="6.4"/>
				<ellipse class="st27" cx="399.7" cy="376.8" rx="60" ry="6.2"/>
				<ellipse class="st28" cx="399.7" cy="376.8" rx="58.9" ry="6.1"/>
				<ellipse class="st29" cx="399.7" cy="376.8" rx="57.9" ry="6"/>
				<ellipse class="st30" cx="399.7" cy="376.8" rx="56.8" ry="5.9"/>
				<ellipse class="st31" cx="399.7" cy="376.8" rx="55.8" ry="5.7"/>
				<ellipse class="st32" cx="399.7" cy="376.8" rx="54.7" ry="5.6"/>
				<ellipse class="st33" cx="399.7" cy="376.8" rx="53.7" ry="5.5"/>
				<ellipse class="st34" cx="399.7" cy="376.8" rx="52.6" ry="5.3"/>
				<ellipse class="st35" cx="399.7" cy="376.8" rx="51.6" ry="5.2"/>
				<ellipse class="st36" cx="399.7" cy="376.8" rx="50.5" ry="5.1"/>
				<ellipse class="st37" cx="399.7" cy="376.8" rx="49.5" ry="5"/>
				<ellipse class="st38" cx="399.7" cy="376.8" rx="48.4" ry="4.8"/>
				<ellipse class="st39" cx="399.7" cy="376.8" rx="47.4" ry="4.7"/>
				<ellipse class="st40" cx="399.7" cy="376.8" rx="46.3" ry="4.6"/>
				<ellipse class="st41" cx="399.7" cy="376.8" rx="45.3" ry="4.4"/>
				<ellipse class="st42" cx="399.7" cy="376.8" rx="44.2" ry="4.3"/>
				<ellipse class="st43" cx="399.7" cy="376.8" rx="43.2" ry="4.2"/>
				<ellipse class="st44" cx="399.7" cy="376.8" rx="42.1" ry="4.1"/>
				<ellipse class="st45" cx="399.7" cy="376.8" rx="41.1" ry="3.9"/>
				<ellipse class="st46" cx="399.7" cy="376.8" rx="40" ry="3.8"/>
				<ellipse class="st47" cx="399.7" cy="376.8" rx="39" ry="3.7"/>
				<ellipse class="st48" cx="399.7" cy="376.8" rx="37.9" ry="3.5"/>
				<ellipse class="st49" cx="399.7" cy="376.8" rx="36.8" ry="3.4"/>
				<ellipse class="st50" cx="399.7" cy="376.8" rx="35.8" ry="3.3"/>
				<ellipse class="st51" cx="399.7" cy="376.8" rx="34.7" ry="3.2"/>
				<ellipse class="st52" cx="399.7" cy="376.8" rx="33.7" ry="3"/>
				<ellipse class="st53" cx="399.7" cy="376.8" rx="32.6" ry="2.9"/>
				<ellipse class="st54" cx="399.7" cy="376.8" rx="31.6" ry="2.8"/>
				<ellipse class="st55" cx="399.7" cy="376.8" rx="30.5" ry="2.6"/>
				<ellipse class="st56" cx="399.7" cy="376.8" rx="29.5" ry="2.5"/>
				<ellipse class="st57" cx="399.7" cy="376.8" rx="28.4" ry="2.4"/>
				<ellipse class="st58" cx="399.7" cy="376.8" rx="27.4" ry="2.3"/>
				<ellipse class="st59" cx="399.7" cy="376.8" rx="26.3" ry="2.1"/>
				<ellipse class="st60" cx="399.7" cy="376.8" rx="25.3" ry="2"/>
				<ellipse class="st61" cx="399.7" cy="376.8" rx="24.2" ry="1.9"/>
				<ellipse class="st62" cx="399.7" cy="376.8" rx="23.2" ry="1.7"/>
				<ellipse class="st63" cx="399.7" cy="376.8" rx="22.1" ry="1.6"/>
				<ellipse class="st64" cx="399.7" cy="376.8" rx="21.1" ry="1.5"/>
				<ellipse class="st65" cx="399.7" cy="376.8" rx="20" ry="1.3"/>
				<ellipse class="st66" cx="399.7" cy="376.8" rx="19" ry="1.2"/>
				<ellipse class="st67" cx="399.7" cy="376.8" rx="17.9" ry="1.1"/>
				<ellipse class="st68" cx="399.7" cy="376.8" rx="16.9" ry="1"/>
			</g>
			<linearGradient id="SVGID_2_" gradientUnits="userSpaceOnUse" x1="345.8027" y1="219.2763" x2="328.0002" y2="270.2553">
				<stop  offset="0" style="stop-color:#B2D235"/>
				<stop  offset="0.549" style="stop-color:#8BC53F"/>
				<stop  offset="1" style="stop-color:#00703B"/>
			</linearGradient>
			<path class="st69" d="M330.1,238.4c-9.8,6.5-17.3,14.9-25.2,23.4l-0.1,6.5c18.9-28.8,45.1-40.6,66.2-46.7
				c-0.8,0.1-1.6,0.3-2.4,0.5c-3.9,0.9-7.8,2-11.5,3.2C347.6,228.5,338.4,232.9,330.1,238.4z"/>
			<g>
				<radialGradient id="SVGID_3_" cx="481.9057" cy="253.97" r="33.3472" gradientUnits="userSpaceOnUse">
					<stop  offset="2.747250e-002" style="stop-color:#FFFFFF"/>
					<stop  offset="0.3352" style="stop-color:#009FDC"/>
					<stop  offset="1" style="stop-color:#231E62"/>
				</radialGradient>
				<path class="st70" d="M493.8,276.3c0,7.1-5.8,12.9-12.9,12.9c-7.1,0-12.9-5.8-12.9-12.9c0-7.1,5.8-12.9,12.9-12.9
					C488,263.4,493.8,269.2,493.8,276.3z"/>
				<g>
					<linearGradient id="SVGID_4_" gradientUnits="userSpaceOnUse" x1="479.7708" y1="263.5774" x2="480.1853" y2="280.5714">
						<stop  offset="2.747250e-002" style="stop-color:#FFFFFF"/>
						<stop  offset="0.3352" style="stop-color:#009FDC"/>
						<stop  offset="1" style="stop-color:#231E62"/>
					</linearGradient>
					<path class="st71" d="M469.6,274c0-3,4.7-9.2,10.4-9.2c5.8,0,10.4,6.2,10.4,9.2C490.5,280,469.6,280,469.6,274z"/>
				</g>
			</g>
			<radialGradient id="SVGID_5_" cx="352.1632" cy="294.8387" r="28.5455" gradientUnits="userSpaceOnUse">
				<stop  offset="0" style="stop-color:#B2D235"/>
				<stop  offset="0.549" style="stop-color:#8BC53F"/>
				<stop  offset="1" style="stop-color:#00703B"/>
			</radialGradient>
			<path class="st72" d="M380.8,295.3c-19,6.8-42.6,3.8-61.4-4c-0.9-0.4-5.9-2.2-7.3-0.8c-0.6,0.6-0.7,1.7-0.7,2.9
				c2.3-1.3,8,0.5,12.1,2.1c16.9,6.7,38.4,9.6,54,5.3c4.5-2,19.4-13.9,22.2-17C397.7,285.8,388.6,292.6,380.8,295.3z"/>
			<radialGradient id="SVGID_6_" cx="336.8737" cy="194.9146" r="146.2049" gradientUnits="userSpaceOnUse">
				<stop  offset="0" style="stop-color:#B2D235"/>
				<stop  offset="0.549" style="stop-color:#8BC53F"/>
				<stop  offset="1" style="stop-color:#00703B"/>
			</radialGradient>
			<path class="st73" d="M459.2,217.2c-22.3-20.7-60.9-34.1-103.1-18.6c-6.4,2.4-43.7,18.6-51.2,63.2c7.9-8.6,15.4-17,25.2-23.4
				c8.4-5.5,17.6-9.9,27-13c3.8-1.2,7.6-2.3,11.5-3.2c10.4-2.4,21.3-3.6,31.8-2.8c-5.1,0.3-10.2,0.9-15.2,1.9
				c-28.6,5.8-53.6,20.2-72.4,42.7c-17.1,20.5-9.2,50.9,4.5,71.2c9.9,14.7,22.3,25.3,41.2,32.9c-15.7-9.2-32.1-22.3-39.2-49.5
				c-3.1-6.3-5.4-12.8-7.1-19.6c-0.2-1-0.8-3.4-0.9-5.5c0-1.2,0.1-2.4,0.7-2.9c1.4-1.4,6.4,0.5,7.3,0.8c18.8,7.8,42.3,10.8,61.4,4
				c4.4-1.6,8.8-3.8,12.7-6.6c1.4-1,5.7-4.5,6.2-5c10-9.1,17.5-19.9,25.5-28.9c4.4-4.9,8.9-9.1,14.1-12.2c8.1-4.8,16.8-7,30-4.2
				c2.8,0.6,4.1,1.2,7,2C475.8,239,468.7,226.2,459.2,217.2z"/>
			<radialGradient id="SVGID_7_" cx="444.2949" cy="216.0042" r="45.5164" gradientUnits="userSpaceOnUse">
				<stop  offset="0" style="stop-color:#B2D235"/>
				<stop  offset="0.549" style="stop-color:#8BC53F"/>
				<stop  offset="1" style="stop-color:#00703B"/>
			</radialGradient>
			<path class="st74" d="M476.4,240.5c-2.9-0.8-4.3-1.4-7-2c-13.1-2.8-21.9-0.7-30,4.2c-5.2,3.1-9.7,7.4-14.1,12.2
				c-8.1,8.9-15.9,19.4-25.5,28.9c-0.5,0.5-17.7,15-22.2,17c2.5-0.7,4.8-1.5,6.9-2.6c6.5-3.3,12.1-7.4,17-11.9
				c10.1-9.2,17-20.4,24.8-28.2c19.3-19.3,42.5-10.9,50.1-3.8C476.4,254.2,476.3,240.4,476.4,240.5z"/>
			<radialGradient id="SVGID_8_" cx="484.6322" cy="288.7" r="57.0085" gradientUnits="userSpaceOnUse">
				<stop  offset="2.747250e-002" style="stop-color:#FFFFFF"/>
				<stop  offset="0.3352" style="stop-color:#009FDC"/>
				<stop  offset="1" style="stop-color:#231E62"/>
			</radialGradient>
			<path class="st75" d="M472.2,294.7c-4.9,7.1-11.1,13.1-17.9,18.3c-6.5,4.9-28,17.7-52,18.5c11.5,1.1,30.4-2.1,47.5-10.6
				c13.3-6.6,24.5-15.3,37.9-27.9L472.2,294.7z"/>
			<linearGradient id="SVGID_9_" gradientUnits="userSpaceOnUse" x1="375.6126" y1="196.7569" x2="389.3696" y2="248.5453">
				<stop  offset="0" style="stop-color:#B2D235"/>
				<stop  offset="0.549" style="stop-color:#8BC53F"/>
				<stop  offset="1" style="stop-color:#00703B"/>
			</linearGradient>
			<path class="st76" d="M392,196.4c-21.3,0-42.9,7.9-58.3,22.7c-7.4,7.1-17,21-21.2,31.5c43.7-45.5,100.5-31.8,100.5-31.8
				s-53,6.1-74.6,26.4c13.6-5.9,31.3-9.9,54.4-9.4c28.1,0.7,50.8-2.5,68.6-7.7C447,211.3,420.9,196.4,392,196.4z"/>
			<radialGradient id="SVGID_10_" cx="461.7601" cy="320.9509" r="57.0355" gradientUnits="userSpaceOnUse">
				<stop  offset="2.747250e-002" style="stop-color:#FFFFFF"/>
				<stop  offset="0.3352" style="stop-color:#009FDC"/>
				<stop  offset="1" style="stop-color:#231E62"/>
			</radialGradient>
			<path class="st77" d="M458.6,328.3c-2.5,1.1-5.1,2-7.6,2.8c-9.6,17.8-23.7,31.1-42.4,35.6C431.2,362.9,448.4,349.3,458.6,328.3z"
				/>
			<radialGradient id="SVGID_11_" cx="415.0231" cy="278.8173" r="101.7088" gradientUnits="userSpaceOnUse">
				<stop  offset="2.747250e-002" style="stop-color:#FFFFFF"/>
				<stop  offset="0.3352" style="stop-color:#009FDC"/>
				<stop  offset="1" style="stop-color:#231E62"/>
			</radialGradient>
			<path class="st78" d="M407.2,331.7c-1.6,0-3.1-0.2-4.7-0.3c3.5,1,6.8,1.7,10.1,2.3c13.8,2.4,26.2,1.5,38.4-2.5
				c2.5-0.8,5.1-1.8,7.6-2.8c-10.2,21-27.4,34.5-50,38.5c-4.5,0.8-9.3,1.2-14.3,1.2c-36.1,0-68.3-33.4-75-49.5
				c2.6,10.1,6.6,18.2,11.3,25c8,11.4,18.1,18.8,28,24.6c1.6,0.7,19.7,7.1,32.6,7.1c14.3,0,28.9-2.2,41.9-8.4
				c45.4-21.4,55.2-73.9,55.1-73.8C485,295.6,452.4,331,407.2,331.7z"/>
		</g>
		<g>
			<g>
				<path class="st79" d="M528.4,460.9c-0.5-0.4-1-0.9-1.4-1.4c-1.2-1.3-2-2.7-2.6-4.2c-1,1-1.8,2-2.1,3.2c-0.3,1.3,1.4,2.7,2.5,2.8
					C526,461.6,527.2,461.4,528.4,460.9z"/>
				<path class="st79" d="M538.9,451.6c-0.3-1.2-0.2-2.6,0.2-3.7c0-0.5,0-0.9,0-1.4c-0.6,0.2-1.1,0.5-1.7,0.8
					c0.2,1.7,0.6,3.2,1.1,4.7c0,0,0.1,0,0.1,0C538.8,451.9,538.8,451.8,538.9,451.6z"/>
				<path class="st79" d="M548,465.6c-0.9-0.4-1.7-0.9-2.6-1.5c-0.1,0-0.2,0-0.2,0.1l-0.8,0.8c0,0.6,0.1,1.2,0.2,1.8
					C545.8,466.3,546.9,466,548,465.6z"/>
			</g>
			<g>
				<path class="st79" d="M190.1,481.8c0-0.3-0.1-0.6-0.1-0.8l-0.3-0.5h-2.4l2.7,3.7C190,483.4,190,482.6,190.1,481.8z"/>
				<path class="st79" d="M392.1,480.4H390c-0.4,0.6-0.7,1.2-1,1.8h1.3C390.9,481.6,391.4,481,392.1,480.4z"/>
			</g>
		</g>
	</g>
	<rect x="254.3" y="407.7" class="st80" width="430.5" height="58.5"/>
	<text transform="matrix(1 0 0 1 254.3474 444.7349)"><tspan x="0" y="0" class="st81 st82 st83">Green</tspan><tspan x="137.5" y="0" class="st84 st82 st83">x</tspan><tspan x="164.2" y="0" class="st85 st82 st83">Carbon</tspan></text>
</g>
</svg>
